# xmcd
#
# Track frame offsets:
#	150
#	32517
#	53280
#	79215
#	98062
#	128282
#	148560
#	170710
#	192355
#	215085
#	231707
#
# Disc length: 3438 seconds
#
# Revision: 0
# Processed by: cddbd v1.5.2PL0 Copyright (c) Steve Scherf et al.
# Submitted via: EasyCDDAExtractor 11.0.3.1
#
DISCID=930d6c0b
DTITLE=Thalia Zedek - Liars And Prayers
DYEAR=2008
DGENRE=Alternative
TTITLE0=Next Exit
TTITLE1=Lower Allston
TTITLE2=Do You Remember
TTITLE3=We Don't Go
TTITLE4=Body Memory
TTITLE5=Wind
TTITLE6=Circa The End
TTITLE7=Come Undone
TTITLE8=Green And Blue
TTITLE9=Stars
TTITLE10=Begin To Exhume
EXTD=
EXTT0=
EXTT1=
EXTT2=
EXTT3=
EXTT4=
EXTT5=
EXTT6=
EXTT7=
EXTT8=
EXTT9=
EXTT10=
PLAYORDER=
